<svg xmlns="http://www.w3.org/2000/svg" viewBox="0 0 1280 720" role="img" aria-label="Vue globale de CV Generator">
  <rect width="1280" height="720" fill="#0f0f0f"/>
  <rect x="0" y="0" width="1280" height="72" fill="#121212"/>
  <text x="36" y="46" fill="#e8d5a3" font-size="28" font-family="Georgia, serif" font-weight="700">CV<tspan fill="#b8b1a3" font-style="italic" font-weight="400">forge</tspan></text>
  <rect x="0" y="72" width="1280" height="54" fill="#262626"/>
  <rect x="36" y="182" width="360" height="486" rx="18" fill="#1d1d1d" stroke="#343434"/>
  <rect x="430" y="182" width="814" height="486" rx="18" fill="#111111" stroke="#343434"/>
  <text x="56" y="224" fill="#f0ede8" font-size="24" font-family="Arial, sans-serif" font-weight="700">Panneau d’édition</text>
  <text x="454" y="224" fill="#a6a09a" font-size="24" font-family="Arial, sans-serif">Aperçu en temps réel</text>
  <rect x="56" y="252" width="320" height="88" rx="14" fill="#242424" stroke="#3a3a3a"/>
  <rect x="56" y="358" width="320" height="122" rx="14" fill="#242424" stroke="#3a3a3a"/>
  <rect x="56" y="498" width="320" height="122" rx="14" fill="#242424" stroke="#3a3a3a"/>
  <text x="78" y="306" fill="#f0ede8" font-size="20" font-family="Arial, sans-serif">À Propos</text>
  <text x="78" y="412" fill="#f0ede8" font-size="20" font-family="Arial, sans-serif">Expérience</text>
  <text x="78" y="552" fill="#f0ede8" font-size="20" font-family="Arial, sans-serif">Compétences</text>
  <text x="520" y="312" fill="#f0ede8" font-size="42" font-family="Georgia, serif" font-weight="700">OCTAVE BAHOUN-</text>
  <text x="520" y="360" fill="#f0ede8" font-size="42" font-family="Georgia, serif" font-weight="700">HOUTOUKPE</text>
  <text x="520" y="405" fill="#e8d5a3" font-size="24" font-family="Georgia, serif" font-style="italic">Développeur FullStack en formation</text>
  <rect x="1084" y="262" width="100" height="100" rx="50" fill="#222" stroke="#e8d5a3" stroke-width="4"/>
  <rect x="520" y="470" width="620" height="2" fill="#e8d5a3"/>
  <text x="520" y="530" fill="#e8d5a3" font-size="22" font-family="Georgia, serif" font-weight="700">À PROPOS</text>
  <rect x="660" y="523" width="480" height="1" fill="#343434"/>
  <rect x="520" y="555" width="640" height="18" rx="6" fill="#2a2a2a"/>
  <rect x="520" y="585" width="600" height="18" rx="6" fill="#2a2a2a"/>
  <rect x="520" y="615" width="560" height="18" rx="6" fill="#2a2a2a"/>
</svg>
