<svg xmlns="http://www.w3.org/2000/svg" viewBox="0 0 900 720" role="img" aria-label="Panneau d’édition de CV Generator">
  <rect width="900" height="720" fill="#121212"/>
  <rect x="0" y="0" width="900" height="72" fill="#1a1a1a"/>
  <text x="32" y="46" fill="#e8d5a3" font-size="28" font-family="Georgia, serif" font-weight="700">CV<tspan fill="#b8b1a3" font-style="italic" font-weight="400">forge</tspan></text>
  <rect x="32" y="122" width="836" height="102" rx="16" fill="#1f1f1f" stroke="#343434"/>
  <text x="58" y="170" fill="#f0ede8" font-size="24" font-family="Arial, sans-serif" font-weight="700">À Propos</text>
  <rect x="58" y="188" width="360" height="16" rx="6" fill="#303030"/>
  <rect x="438" y="188" width="360" height="16" rx="6" fill="#303030"/>
  <rect x="58" y="246" width="836" height="146" rx="16" fill="#1f1f1f" stroke="#343434"/>
  <text x="58" y="286" fill="#f0ede8" font-size="24" font-family="Arial, sans-serif" font-weight="700">Expérience</text>
  <rect x="82" y="308" width="736" height="60" rx="12" fill="#2a2a2a"/>
  <rect x="82" y="380" width="736" height="60" rx="12" fill="#2a2a2a"/>
  <rect x="58" y="414" width="836" height="126" rx="16" fill="#1f1f1f" stroke="#343434"/>
  <text x="58" y="454" fill="#f0ede8" font-size="24" font-family="Arial, sans-serif" font-weight="700">Formation</text>
  <rect x="58" y="562" width="836" height="110" rx="16" fill="#1f1f1f" stroke="#343434"/>
  <text x="58" y="602" fill="#f0ede8" font-size="24" font-family="Arial, sans-serif" font-weight="700">Compétences</text>
  <rect x="82" y="620" width="210" height="28" rx="14" fill="#2a2a2a"/>
  <rect x="306" y="620" width="170" height="28" rx="14" fill="#2a2a2a"/>
  <rect x="490" y="620" width="150" height="28" rx="14" fill="#2a2a2a"/>
</svg>
